<svg width="172" height="44" viewBox="0 0 172 44" fill="none" xmlns="http://www.w3.org/2000/svg">
<g filter="url(#filter0_d)">
<path fill-rule="evenodd" clip-rule="evenodd" d="M18.32 1.4C22.96 1.4 26.84 3.00798 29.96 6.224C33.08 9.44002 34.64 13.432 34.64 18.2C34.64 22.968 33.08 26.96 29.96 30.176C26.84 33.392 22.96 35 18.32 35H4.88V1.4H18.32ZM18.32 27.608C20.976 27.608 23.128 26.752 24.776 25.04C26.424 23.328 27.248 21.048 27.248 18.2C27.248 15.352 26.424 13.072 24.776 11.36C23.128 9.64799 20.976 8.792 18.32 8.792H12.56V27.608H18.32ZM47.12 27.608H60.56V35H39.44V1.4H60.32V8.792H47.12V14.36H59.12V21.656H47.12V27.608ZM73.424 35L62.48 1.4H70.88L78.32 26.12L85.76 1.4H94.16L83.216 35H73.424ZM97.52 1.4H105.2V35H97.52V1.4ZM127.472 35.672C122.448 35.672 118.28 34 114.968 30.656C111.656 27.312 110 23.16 110 18.2C110 13.24 111.656 9.08802 114.968 5.744C118.28 2.39998 122.448 0.728001 127.472 0.728001C130.48 0.728001 133.264 1.42399 135.824 2.816C138.384 4.20801 140.4 6.10399 141.872 8.504L135.248 12.344C134.512 11.032 133.456 10.016 132.08 9.296C130.704 8.576 129.168 8.216 127.472 8.216C124.496 8.216 122.12 9.12799 120.344 10.952C118.568 12.776 117.68 15.192 117.68 18.2C117.68 21.208 118.568 23.624 120.344 25.448C122.12 27.272 124.496 28.184 127.472 28.184C129.168 28.184 130.712 27.816 132.104 27.08C133.496 26.344 134.544 25.336 135.248 24.056L141.872 27.896C140.432 30.296 138.432 32.192 135.872 33.584C133.312 34.976 130.512 35.672 127.472 35.672ZM153.632 27.608H167.072V35H145.952V1.4H166.832V8.792H153.632V14.36H165.632V21.656H153.632V27.608Z" fill="black"/>
</g>
<defs>
<filter id="filter0_d" x="0.880005" y="0.728001" width="170.192" height="42.944" filterUnits="userSpaceOnUse" color-interpolation-filters="sRGB">
<feFlood flood-opacity="0" result="BackgroundImageFix"/>
<feColorMatrix in="SourceAlpha" type="matrix" values="0 0 0 0 0 0 0 0 0 0 0 0 0 0 0 0 0 0 127 0"/>
<feOffset dy="4"/>
<feGaussianBlur stdDeviation="2"/>
<feColorMatrix type="matrix" values="0 0 0 0 0 0 0 0 0 0 0 0 0 0 0 0 0 0 0.25 0"/>
<feBlend mode="normal" in2="BackgroundImageFix" result="effect1_dropShadow"/>
<feBlend mode="normal" in="SourceGraphic" in2="effect1_dropShadow" result="shape"/>
</filter>
</defs>
</svg>
